<svg width="1440" height="810" viewBox="0 0 1440 810" fill="none" xmlns="http://www.w3.org/2000/svg">
<mask id="mask0" mask-type="alpha" maskUnits="userSpaceOnUse" x="0" y="0" width="1440" height="810">
<path d="M1440 0H0V810H1440V0Z" fill="#C4C4C4"/>
</mask>
<g mask="url(#mask0)">
<path d="M1440 121H0V583H1440V121Z" fill="white"/>
<path d="M1558 857L-286 842.677C-252.624 842.677 -193.589 773.38 -170.102 759.71L84.5459 601.742C132.756 572.123 211.869 572.123 258.843 601.742L629.952 703.941L1040.1 577L1323.1 601.742C1346.59 615.412 1525.86 857 1558 857Z" fill="#000F1D"/>
<path d="M1568.75 637.656L1577.93 637.193L1560.28 265.066L1524.12 294.772C1496.02 301.181 1585.42 516.518 1456.73 400.017C1328.03 283.517 1301.01 274.32 1215.65 266.171C1130.29 258.022 853.674 425.983 659.508 476.923L547.007 503.274C518.9 509.683 485.84 509.032 455.963 500.023L128.284 402.47C66.3473 383.491 -1.698 400.114 -24.0795 438.318L-140.685 641.162C-151.798 659.547 -173.821 673.135 -202.004 680.261L-321.59 708.751C-366.123 719.197 -416.484 709.437 -449.648 688.473C-425.006 714.323 -378.957 732.321 -329.546 729.651L-198.641 723.405C-167.685 722.379 -140.323 712.265 -121.535 696.879L75.0938 559.687C112.902 526.765 192.479 516.894 246.562 545.181L534.202 665.056C560.23 678.003 592.597 685.104 623.63 683.361L746.475 677.7C777.431 676.674 805.922 666.681 823.581 651.174L1024.84 479.175C1062.65 446.253 1138.42 442.788 1192.5 471.076L1479.32 619.35C1505.35 632.298 1537.71 639.399 1568.75 637.656Z" fill="#007C89"/>
<path d="M1620.65 782H1513.39C1481.57 782 1452.1 774.844 1429.71 763.134L1186.9 627.823C1140.93 602.452 1065.5 602.452 1020.71 627.823L777.9 763.134C755.505 775.494 726.038 782 694.214 782H571.631C539.807 782 510.34 774.844 487.945 763.134L245.137 627.823C199.169 602.452 123.734 602.452 78.9442 627.823L-163.864 763.134C-186.259 775.494 -215.725 782 -247.55 782H-378.382C-429.066 782 -471.499 764.435 -488 740.366C-488 740.366 -488 739.715 -486.821 739.715L-485.643 740.366C-457.354 761.183 -407.85 772.242 -357.166 765.737L-222.798 747.522C-190.973 742.968 -162.685 731.909 -145.005 716.296L43.5839 542.603C78.9442 510.076 156.737 499.017 215.67 519.183L528.02 624.57C556.308 634.328 590.49 636.93 622.314 632.377L748.433 615.463C780.257 610.909 808.545 599.85 825.047 584.237L1013.64 410.544C1049 378.017 1126.79 366.958 1185.72 387.124L1498.07 492.511C1526.36 502.269 1560.54 504.872 1592.37 500.318L1601.8 499.017L1729.09 694.828C1758.56 737.763 1701.98 782 1620.65 782Z" fill="#005568"/>
<path d="M1841.32 454.489L1718.46 446.776C1682 444.487 1667.83 505.656 1643.06 489.938L1366.87 252.563C1304.16 196.876 1218.97 198.261 1165.74 225.605L877.37 371.156C850.782 384.437 816.536 390.155 780.081 387.866L639.661 379.051C603.206 376.762 569.993 366.022 545.225 350.305L293.625 202.22C223.312 161.72 138.515 151.595 80.1563 214.313C21.7977 277.032 -240.188 603.001 -240.188 603.001C-266.776 616.281 -262.262 322.43 -298.716 320.141L-448.587 310.733C-506.644 307.088 -553.923 282.876 -571.005 252.692C-571.005 252.692 -570.956 251.908 -569.606 251.993L-568.305 252.861C-537.475 279.974 -481.603 296.858 -423.053 292.665L-329.325 -90.1591C-292.526 -93.3565 -779 -20.7748 -155 -20.7747C469 -20.7746 994.5 -20.7747 1554.35 -20.7747C2114.2 -20.7747 1722.8 96.9214 1722.8 96.9214C1754.47 110.712 1793.42 116.305 1830.22 113.107L1841.12 112.218L1972.13 357.27C2002.64 411.114 1934.49 460.338 1841.32 454.489Z" fill="url(#paint0_linear)"/>
</g>
<defs>
<linearGradient id="paint0_linear" x1="724.616" y1="389.5" x2="724.616" y2="14" gradientUnits="userSpaceOnUse">
<stop offset="0.022472" stop-color="#573734"/>
<stop offset="0.3626" stop-color="#D6562B"/>
<stop offset="0.6518" stop-color="#ED7C31"/>
<stop offset="1" stop-color="#F4BB3A"/>
</linearGradient>
</defs>
</svg>
