<svg width="203" height="106" viewBox="0 0 203 106" fill="none" xmlns="http://www.w3.org/2000/svg">
<path d="M133.92 39.22C134.92 39.22 135.8 39.4533 136.56 39.92C137.333 40.3733 137.927 41.0133 138.34 41.84C138.767 42.6667 138.98 43.62 138.98 44.7C138.98 45.7667 138.773 46.7067 138.36 47.52C137.947 48.3333 137.36 48.9667 136.6 49.42C135.84 49.8733 134.96 50.1 133.96 50.1C133.16 50.1 132.453 49.9467 131.84 49.64C131.227 49.32 130.72 48.86 130.32 48.26V53.88H127.72V39.3H130.32V41.06C130.707 40.46 131.2 40.0067 131.8 39.7C132.413 39.38 133.12 39.22 133.92 39.22ZM133.34 47.86C134.22 47.86 134.94 47.56 135.5 46.96C136.06 46.3467 136.34 45.5667 136.34 44.62C136.34 43.6733 136.06 42.9 135.5 42.3C134.94 41.7 134.22 41.4 133.34 41.4C132.447 41.4 131.72 41.7 131.16 42.3C130.6 42.9 130.32 43.6733 130.32 44.62C130.32 45.58 130.6 46.36 131.16 46.96C131.72 47.56 132.447 47.86 133.34 47.86ZM147.553 50V48.7C147.18 49.1667 146.7 49.52 146.113 49.76C145.527 50 144.853 50.12 144.093 50.12C143.347 50.12 142.687 49.98 142.113 49.7C141.553 49.4067 141.12 49.0067 140.813 48.5C140.507 47.9933 140.353 47.4267 140.353 46.8C140.353 45.8 140.707 45.02 141.413 44.46C142.12 43.8867 143.12 43.5933 144.413 43.58H147.533V43.3C147.533 42.6733 147.327 42.1867 146.913 41.84C146.5 41.4933 145.9 41.32 145.113 41.32C144.1 41.32 143.04 41.6533 141.933 42.32L140.993 40.52C141.833 40.0533 142.593 39.72 143.273 39.52C143.967 39.3067 144.773 39.2 145.693 39.2C147.08 39.2 148.153 39.5333 148.913 40.2C149.687 40.8667 150.08 41.8 150.093 43L150.113 50H147.553ZM144.713 48.12C145.46 48.12 146.1 47.9467 146.633 47.6C147.167 47.24 147.467 46.8 147.533 46.28V45.32H144.833C144.14 45.32 143.627 45.4267 143.293 45.64C142.973 45.84 142.813 46.1733 142.813 46.64C142.813 47.0933 142.98 47.4533 143.313 47.72C143.66 47.9867 144.127 48.12 144.713 48.12ZM159.47 39.2C160.697 39.2 161.663 39.5733 162.37 40.32C163.077 41.0533 163.43 42.0533 163.43 43.32V50H160.81V44.08C160.81 43.3333 160.597 42.7467 160.17 42.32C159.743 41.88 159.163 41.66 158.43 41.66C157.563 41.6733 156.877 41.9667 156.37 42.54C155.877 43.1133 155.63 43.8467 155.63 44.74V50H153.03V39.3H155.63V41.3C156.363 39.9267 157.643 39.2267 159.47 39.2ZM173.59 50L170.69 45.32L169.05 47.04V50H166.45V35.16H169.05V43.76L173.45 39.32H176.45L172.49 43.44L176.69 50H173.59ZM185.02 39.2C186.247 39.2 187.213 39.5733 187.92 40.32C188.627 41.0533 188.98 42.0533 188.98 43.32V50H186.36V44.08C186.36 43.3333 186.147 42.7467 185.72 42.32C185.293 41.88 184.713 41.66 183.98 41.66C183.113 41.6733 182.427 41.9667 181.92 42.54C181.413 43.1133 181.16 43.8467 181.16 44.74V50H178.56V35.16H181.16V41.34C181.893 39.94 183.18 39.2267 185.02 39.2ZM191.897 39.3H194.497V50H191.897V39.3ZM193.177 34.7C193.604 34.7 193.957 34.8467 194.237 35.14C194.517 35.4333 194.657 35.8067 194.657 36.26C194.657 36.7 194.517 37.0667 194.237 37.36C193.957 37.6533 193.604 37.8 193.177 37.8C192.751 37.8 192.397 37.6533 192.117 37.36C191.837 37.0667 191.697 36.7 191.697 36.26C191.697 35.8067 191.837 35.4333 192.117 35.14C192.397 34.8467 192.751 34.7 193.177 34.7ZM197.818 35.16H200.418V50H197.818V35.16ZM141.64 64.2C142.853 64.2 143.807 64.5733 144.5 65.32C145.193 66.0533 145.54 67.0533 145.54 68.32V75H142.92V69.08C142.92 68.32 142.707 67.7267 142.28 67.3C141.867 66.86 141.3 66.64 140.58 66.64C139.753 66.6667 139.093 66.9667 138.6 67.54C138.12 68.1133 137.88 68.84 137.88 69.72V75H135.26V69.08C135.26 68.32 135.053 67.7267 134.64 67.3C134.227 66.86 133.66 66.64 132.94 66.64C132.1 66.6667 131.433 66.9667 130.94 67.54C130.46 68.1133 130.22 68.84 130.22 69.72V75H127.62V64.3H130.22V66.28C130.927 64.92 132.18 64.2267 133.98 64.2C134.913 64.2 135.693 64.4267 136.32 64.88C136.96 65.32 137.407 65.9467 137.66 66.76C138.34 65.08 139.667 64.2267 141.64 64.2ZM148.44 64.3H151.04V75H148.44V64.3ZM149.72 59.7C150.147 59.7 150.5 59.8467 150.78 60.14C151.06 60.4333 151.2 60.8067 151.2 61.26C151.2 61.7 151.06 62.0667 150.78 62.36C150.5 62.6533 150.147 62.8 149.72 62.8C149.294 62.8 148.94 62.6533 148.66 62.36C148.38 62.0667 148.24 61.7 148.24 61.26C148.24 60.8067 148.38 60.4333 148.66 60.14C148.94 59.8467 149.294 59.7 149.72 59.7ZM160.601 67.2C160.081 66.8933 159.541 66.6533 158.981 66.48C158.434 66.3067 157.927 66.22 157.461 66.22C157.021 66.22 156.667 66.3 156.401 66.46C156.147 66.6067 156.021 66.84 156.021 67.16C156.021 67.4933 156.181 67.7533 156.501 67.94C156.834 68.1133 157.354 68.3 158.061 68.5C158.807 68.7267 159.421 68.9533 159.901 69.18C160.381 69.3933 160.794 69.72 161.141 70.16C161.501 70.5867 161.681 71.1533 161.681 71.86C161.681 72.9 161.281 73.7 160.481 74.26C159.681 74.82 158.674 75.1 157.461 75.1C156.634 75.1 155.827 74.9733 155.041 74.72C154.254 74.4533 153.587 74.08 153.041 73.6L153.941 71.78C154.421 72.1933 154.994 72.52 155.661 72.76C156.327 72.9867 156.961 73.1 157.561 73.1C158.041 73.1 158.421 73.02 158.701 72.86C158.994 72.6867 159.141 72.4333 159.141 72.1C159.141 71.7267 158.974 71.4467 158.641 71.26C158.307 71.0733 157.767 70.8667 157.021 70.64C156.301 70.4267 155.714 70.22 155.261 70.02C154.807 69.8067 154.414 69.4933 154.081 69.08C153.747 68.6533 153.581 68.1 153.581 67.42C153.581 66.3667 153.961 65.5667 154.721 65.02C155.494 64.46 156.461 64.18 157.621 64.18C158.327 64.18 159.021 64.28 159.701 64.48C160.394 64.68 161.007 64.96 161.541 65.32L160.601 67.2ZM170.169 74.34C169.316 74.86 168.422 75.12 167.489 75.12C166.569 75.12 165.816 74.8533 165.229 74.32C164.642 73.7733 164.349 72.9733 164.349 71.92V66.64H162.849L162.829 64.74H164.349V61.8H166.929V64.74H169.989V66.64H166.929V71.46C166.929 71.9533 167.022 72.3067 167.209 72.52C167.396 72.72 167.676 72.82 168.049 72.82C168.449 72.82 168.956 72.6733 169.569 72.38L170.169 74.34ZM174.81 66.36C175.17 65.6667 175.657 65.14 176.27 64.78C176.897 64.4067 177.623 64.2133 178.45 64.2V66.72C177.343 66.6533 176.457 66.9133 175.79 67.5C175.137 68.0733 174.81 68.8533 174.81 69.84V75H172.21V64.3H174.81V66.36ZM185.364 76.34C185.031 77.22 184.551 77.88 183.924 78.32C183.311 78.7733 182.577 79 181.724 79C181.204 79 180.731 78.92 180.304 78.76C179.891 78.6133 179.477 78.3733 179.064 78.04L180.184 76.06C180.437 76.2467 180.671 76.38 180.884 76.46C181.097 76.5533 181.324 76.6 181.564 76.6C182.271 76.6 182.791 76.24 183.124 75.52L183.444 74.82L179.024 64.3H181.724L184.764 72.08L187.544 64.3H190.164L185.364 76.34ZM137.94 84.16V99H135.34V97.28C134.953 97.88 134.453 98.34 133.84 98.66C133.24 98.9667 132.54 99.12 131.74 99.12C130.727 99.12 129.833 98.8933 129.06 98.44C128.3 97.9733 127.707 97.3267 127.28 96.5C126.853 95.66 126.64 94.7 126.64 93.62C126.64 92.5533 126.847 91.6133 127.26 90.8C127.687 89.9733 128.28 89.3333 129.04 88.88C129.813 88.4267 130.693 88.2 131.68 88.2C132.493 88.2 133.207 88.36 133.82 88.68C134.433 89 134.94 89.46 135.34 90.06V84.16H137.94ZM132.3 96.94C133.193 96.94 133.92 96.64 134.48 96.04C135.053 95.4267 135.34 94.64 135.34 93.68C135.34 92.72 135.053 91.94 134.48 91.34C133.92 90.7267 133.193 90.42 132.3 90.42C131.407 90.42 130.68 90.7267 130.12 91.34C129.56 91.94 129.273 92.72 129.26 93.68C129.273 94.64 129.56 95.4267 130.12 96.04C130.68 96.64 131.407 96.94 132.3 96.94ZM145.732 88.22C147.439 88.22 148.719 88.7067 149.572 89.68C150.439 90.6533 150.872 92.02 150.872 93.78C150.872 94.1267 150.866 94.3867 150.852 94.56H142.952C143.126 95.32 143.479 95.92 144.012 96.36C144.559 96.7867 145.226 97 146.012 97C146.559 97 147.079 96.9 147.572 96.7C148.079 96.4867 148.519 96.1867 148.892 95.8L150.292 97.26C149.759 97.8467 149.106 98.3 148.332 98.62C147.572 98.94 146.726 99.1 145.792 99.1C144.699 99.1 143.732 98.8733 142.892 98.42C142.066 97.9667 141.426 97.3333 140.972 96.52C140.519 95.6933 140.292 94.7467 140.292 93.68C140.292 92.6133 140.519 91.6667 140.972 90.84C141.439 90.0133 142.086 89.3733 142.912 88.92C143.739 88.4533 144.679 88.22 145.732 88.22ZM148.492 92.82C148.466 92.0333 148.206 91.4067 147.712 90.94C147.219 90.4733 146.566 90.24 145.752 90.24C144.992 90.24 144.352 90.4733 143.832 90.94C143.326 91.3933 143.012 92.02 142.892 92.82H148.492ZM159.448 91.2C158.928 90.8933 158.388 90.6533 157.828 90.48C157.282 90.3067 156.775 90.22 156.308 90.22C155.868 90.22 155.515 90.3 155.248 90.46C154.995 90.6067 154.868 90.84 154.868 91.16C154.868 91.4933 155.028 91.7533 155.348 91.94C155.682 92.1133 156.202 92.3 156.908 92.5C157.655 92.7267 158.268 92.9533 158.748 93.18C159.228 93.3933 159.642 93.72 159.988 94.16C160.348 94.5867 160.528 95.1533 160.528 95.86C160.528 96.9 160.128 97.7 159.328 98.26C158.528 98.82 157.522 99.1 156.308 99.1C155.482 99.1 154.675 98.9733 153.888 98.72C153.102 98.4533 152.435 98.08 151.888 97.6L152.788 95.78C153.268 96.1933 153.842 96.52 154.508 96.76C155.175 96.9867 155.808 97.1 156.408 97.1C156.888 97.1 157.268 97.02 157.548 96.86C157.842 96.6867 157.988 96.4333 157.988 96.1C157.988 95.7267 157.822 95.4467 157.488 95.26C157.155 95.0733 156.615 94.8667 155.868 94.64C155.148 94.4267 154.562 94.22 154.108 94.02C153.655 93.8067 153.262 93.4933 152.928 93.08C152.595 92.6533 152.428 92.1 152.428 91.42C152.428 90.3667 152.808 89.5667 153.568 89.02C154.342 88.46 155.308 88.18 156.468 88.18C157.175 88.18 157.868 88.28 158.548 88.48C159.242 88.68 159.855 88.96 160.388 89.32L159.448 91.2ZM162.757 88.3H165.357V99H162.757V88.3ZM164.037 83.7C164.463 83.7 164.817 83.8467 165.097 84.14C165.377 84.4333 165.517 84.8067 165.517 85.26C165.517 85.7 165.377 86.0667 165.097 86.36C164.817 86.6533 164.463 86.8 164.037 86.8C163.61 86.8 163.257 86.6533 162.977 86.36C162.697 86.0667 162.557 85.7 162.557 85.26C162.557 84.8067 162.697 84.4333 162.977 84.14C163.257 83.8467 163.61 83.7 164.037 83.7ZM178.357 88.3V97.98C178.357 98.9933 178.124 99.8733 177.657 100.62C177.204 101.38 176.55 101.96 175.697 102.36C174.857 102.773 173.877 102.98 172.757 102.98C171.13 102.98 169.624 102.507 168.237 101.56L169.277 99.68C170.29 100.427 171.404 100.8 172.617 100.8C173.577 100.8 174.337 100.553 174.897 100.06C175.47 99.5667 175.757 98.8933 175.757 98.04V96.78C175.397 97.3267 174.93 97.7467 174.357 98.04C173.784 98.32 173.117 98.46 172.357 98.46C171.424 98.46 170.597 98.2467 169.877 97.82C169.157 97.38 168.597 96.7733 168.197 96C167.797 95.2133 167.597 94.3133 167.597 93.3C167.597 92.3 167.797 91.42 168.197 90.66C168.597 89.8867 169.157 89.2867 169.877 88.86C170.597 88.4333 171.424 88.22 172.357 88.22C173.104 88.22 173.764 88.3667 174.337 88.66C174.924 88.9533 175.397 89.3667 175.757 89.9V88.3H178.357ZM172.917 96.42C173.757 96.42 174.437 96.14 174.957 95.58C175.49 95.0067 175.757 94.2667 175.757 93.36C175.757 92.4533 175.49 91.72 174.957 91.16C174.437 90.5867 173.757 90.3 172.917 90.3C172.077 90.3 171.39 90.5867 170.857 91.16C170.337 91.7333 170.07 92.4667 170.057 93.36C170.07 94.2667 170.337 95.0067 170.857 95.58C171.39 96.14 172.077 96.42 172.917 96.42ZM187.849 88.2C189.076 88.2 190.042 88.5733 190.749 89.32C191.456 90.0533 191.809 91.0533 191.809 92.32V99H189.189V93.08C189.189 92.3333 188.976 91.7467 188.549 91.32C188.122 90.88 187.542 90.66 186.809 90.66C185.942 90.6733 185.256 90.9667 184.749 91.54C184.256 92.1133 184.009 92.8467 184.009 93.74V99H181.409V88.3H184.009V90.3C184.742 88.9267 186.022 88.2267 187.849 88.2Z" fill="#222222"/>
<path d="M93.7342 104.124C86.85 103.698 84.2383 75.0815 78.0033 75.4483C71.7683 75.815 70.4548 103.892 64.4161 104.124C58.3773 104.357 55.1767 75.8674 48.051 75.6803C40.5478 75.4632 37.0756 104.484 32.5314 104.124C29.3837 103.885 23.1487 87.9712 22.6052 68.0677C23.2822 67.2006 24.0686 66.4233 24.9452 65.7548C33.5957 59.1527 38.4192 64.4898 59.3133 56.2709C67.6166 53.0148 82.0417 46.3154 89.5071 31.6068C91.0168 28.5753 96.8064 14.7499 89.4618 7.69122C96.188 12.1174 101.607 18.2374 105.163 25.4239C120.154 57.0943 102.566 104.663 93.7342 104.124Z" stroke="#222222" stroke-width="2"/>
<path d="M89.4543 31.5994C81.9964 46.308 67.5638 53.0074 59.2605 56.2635C38.3664 64.4973 33.5431 59.1453 24.8925 65.7474C24.0159 66.4158 23.2294 67.1932 22.5524 68.0603C22.1675 54.4296 24.4622 38.905 32.2673 25.2818C36.8643 17.2425 47.1227 2.96805 63.065 1.0069C68.2507 0.934204 73.4283 1.43634 78.5015 2.50396V2.50396C82.3489 3.69852 86.0041 5.43271 89.3562 7.65385C96.7536 14.7424 90.9942 28.5678 89.4543 31.5994Z" stroke="#222222" stroke-width="2"/>
<path d="M43.7558 2.65464C28.44 5.2745 17.2608 9.66088 9.95388 18.9576C1.40904 29.8338 0.397517 42.3193 1.24294 54.5803C3.21309 83.4137 17.4042 106.132 19.7366 104.956C24.6733 102.479 13.6979 79.2668 22.5597 68.0613C22.1748 54.4305 24.4695 38.906 32.2746 25.2827C36.8716 17.2435 47.13 2.96903 63.0723 1.00787C56.5988 1.0304 50.1382 1.58118 43.7558 2.65464Z" stroke="#222222" stroke-width="2"/>
<path d="M22.1337 40.3514C23.1073 40.3514 23.8965 39.5702 23.8965 38.6065C23.8965 37.6428 23.1073 36.8615 22.1337 36.8615C21.1601 36.8615 20.3708 37.6428 20.3708 38.6065C20.3708 39.5702 21.1601 40.3514 22.1337 40.3514Z" fill="#222222"/>
</svg>
